<?xml version="1.0" encoding="UTF-8"?>
<svg id="Layer_2" xmlns="http://www.w3.org/2000/svg" viewBox="0 0 906.71 6.86">
  <defs>
    <style>
      .cls-1 {
        fill: #f87e54;
      }
    </style>
  </defs>
  <g id="Layer_1-2" data-name="Layer_1">
    <g>
      <polygon class="cls-1" points="906.71 1.83 905.85 1.35 901.26 1.96 906.71 1.83"/>
      <path class="cls-1" d="M859.66,1.32c-4.21.52-12.26.85-12.39,1.85l7.62-.89c1.06.75,6.08.71,10.51.46l-5.03.05c1.3-.1.47-.58,1.77-.68,7.68.39,9.65-.65,16.76.17l-.4.08,5.6-.49c1.77.11,1.07.47.5.6,5-.4,8.78-.81,15.56-.77-5.25-1.36-14.87,1.06-20.09-.3l.4-.08c-6.54.51-14.15-.37-20.79,0Z"/>
      <path class="cls-1" d="M884.58,2.47c-.15.01-.29.02-.44.04.03.04.22.02.44-.04Z"/>
      <path class="cls-1" d="M613.39.49l-.27.22c.4-.08.78-.16.27-.22Z"/>
      <path class="cls-1" d="M696.27,3.24c-.14,0-.26-.02-.4-.03-.53.3-.25.23.4.03Z"/>
      <path class="cls-1" d="M163.02.82l-1.62-.31c.4.29.98.36,1.62.31Z"/>
      <path class="cls-1" d="M51.76.58c-.06,0-.11,0-.17.01.05,0,.12,0,.17-.01Z"/>
      <path class="cls-1" d="M102.43,4.81l.22.28c.21-.16.09-.24-.22-.28Z"/>
      <path class="cls-1" d="M66.51,5.36c-1-.07-1.99-.12-2.99-.13.69.15,1.95.19,2.99.13Z"/>
      <path class="cls-1" d="M52.85.46c-.33.05-.71.09-1.09.12.42-.03.83-.06,1.09-.12Z"/>
      <path class="cls-1" d="M156.49,5.32l1.4.72c-.02-.24-.74-.48-1.4-.72Z"/>
      <path class="cls-1" d="M57.64,5.94c-.5-.14-1.17-.21-1.88-.26.35.14.97.25,1.88.26Z"/>
      <path class="cls-1" d="M852.35,1.37c1.02,0,2.18-.02,3.58-.1-1.33-.05-2.49,0-3.58.1Z"/>
      <path class="cls-1" d="M359.09,5.97c-.28.08-.5.17-.64.28.8-.06.84-.16.64-.28Z"/>
      <path class="cls-1" d="M240.41,5.86l-.39.02c.1.03.25.07.49.11l-.1-.14Z"/>
      <path class="cls-1" d="M275.05,5.74c-.17.05-.32.1-.46.16.34-.07.43-.12.46-.16Z"/>
      <path class="cls-1" d="M214.23,6.62c-.42.06-.85.14-1.22.25l1.22-.25Z"/>
      <path class="cls-1" d="M189.17,5.87c1.12.26-.08.5-1.27.74,6.25.35,8.33-.55,14.83.07l-3.05-.35c4.2-.52,11.96-.64,15.72.05l-1.17.24c4-.58,10.29.49,11.99,0-1.64-.31.07-.5-2.47-.79l10.17-.59.76.97,5.34-.32c-1.32-.39,7.16.31,7.3-.61,3.05.35-1.26.74-2.34,1.12,3.01-.28,3.33.14,6.12-.43l2.98.85,7.84-.61c-.4.08.09.14-.29.22,3.58-.72,9.1.42,13.66-.82-.23.05-.17.09-.23.14,2.5-.67,8.67-.19,10.92-.04,4.04-.17,1.68-.82,1.85-1.18,11.72.22,7.98.16,17.82-.85,5.89,1.06-6.96,1.72.53,2.46,1-.52,6.2-.93,12.06-1.13,5.36.37,14.35.65,19.54,1.38l-.54-.7,7.54-.39-4.29,1.02c1.2-.24,4.99-.68,7.51-1.02,7.83-.61,4.44,1.52,10.52.46.23.08.44.15.57.22,1.96-.54,7.1-.34,13.01-.54l-2.06.9-3.84-.19c2.06.87,6.35-.15,10.08-.1,3.9-.31,1.96-1.04,4.05-1.3,1.41.04,3.52-.22,4.64.03,3.43.27.37,1.05-.72,1.43,2.97-.92,3.99-.8,10.62-1.17.35.43-.13.62-1.01.71,1.4-.11,2.61-.3,3.33-.69l2.25.51c7.53.74,7.47-1.66,16.47-1.38-2.4.48,7.76-.11,10.52.46-3.12.14,1.5,1.31-.4,1.85,7.2.33,2.87-1.06,8.7-1.27l-2.35,1.12c5.61-.49,1.37-.6,7.1-.95-1.58.32,2.54.3-.86.66,7.47.11,5.53.01,12.11.14l.54-1.07c2.2-.12,3.04.35,3.66.55-.91.02-2.33-.02-2.2.12,2.57.93,4.21-.52,7.18.33-.73-.34-1.57-.81,1.16-.88-.87.66,4.18.61,4.38.89-1.73-.45,5.84-.21,6.21-.93,3.16.49-.99.52-1.17.88,2.58-.84,11.01-.12,13.39-.6.05.07.18.11.17.16,3.33-.51,8.85-.64,15.47-1.38l-2.27.62c6.69.27,4.06-1.3,9.61-1.29-1.16.88,9.17-.07,6.7.9,3.31-.5,6.83-.73,8.99-1.49,3.16.49-5.99,1.2-1.63,1.45l4.7-.46.84.47c.19-.36,4.32-.39,4.1-.66.74.57,2.63.97,2.42,1.4,2.98-.17,7.17.37,9.65-.13l.22.28c2.86-1.06,9.06-.22,10.5-1.31l1.85.59c4.54-.11,3.67-1.22,5.77-1.48,1.81-.04,4.03-.17,5.94-.07-5.91.71,2.98.85,4.21,1.24,2.33.02,9.18-.07,11.06-.61-2.8.56-1.05,1.02-6.09,1.06,2.7,1.07,7.66-.25,13.31-.1l-.06.5c8.04-.33,8.29-1.19,11.77-2.05.95.62.16.78-2.13,1.4,5.36.37,13.83-.05,19.88.02,1.91.44.65.69-1.35.88,6.24-.47,13.97.1,17.89-.99-1.54.44,2.51.28,4.82.49,0-.23.44-.52.72-.48,3.82-.44,12.26-.86,16.73-.47l-1.61.32c10.31.18,14.84-1.7,26.09-.9,2.02.23-2.08.9,2.05.87,2.01-.4,1.35-1.24,6.6-1.01l-.36.72,3.58-.72c-1.84-.59-7.69-.38-3.59-1.05,4.7.67,4.1-.66,9.8.12-1.32.07-3.04.62-3.98.91,11.96.85,16.74-.7,28.85.2,6.03-.57,13.79-.68,17.97-1.2-.35.72-.3,1.35-3.09,1.91,5.15.09,7.57-1.52,11.17-.47,2.47-.98,14.29-.62,15.52-2,.21.28,5.55.01.15.78,7.03-.45,9.25,1.19,12.48,1.19,1.81-.04-2.07-.87,2.06-.9.51.06.62.2,1.14.26l1.58-.32c1.64.31-1.79.68-1.95,1.04,5.77.29,9.53-.79,16.37-.88l-1.17.24,6.95.05-.4.08,5.61-.48-.17.36c1.3-.1,1.6-.32,3.41-.36l-.58.44c1.78-.68,8.41-1.05,11.64-1.05l.62.2,7.61-.89c4.06.47-5.18,1.04,2.87.71l-2.07.9c5.72-.35,6.57.13,10.49-.18-1.77-.45-4.48-.39-2.47-.79,4.5,1.03,7.18-.26,11.5-.68-2.19.02-3.67,0-5.17.53-2.32-.02-.83-.48-2.26-.52l-3.28.5-.93-.61-5.63.49c.35-.72-5.17-.09-2.97-.85-3.93.3-6.18-.21-9.76.51-2.66-.43,4.2-.52,1.38-.6-15.71.58-31.94.47-48.3.22l1.59-.32c-1.59.32-3.69.58-4.88.83-2.78-.57-13.5-1.31-17.27-.23-.52-.06.29-.22.69-.3-5.45.13-15.27-.63-23.02-.52-3.28,1.14-11.66-.71-14.6.84l1.61-.32c2.64.43-3.76,1.08-4.85,1.46-2.18-1.01-.15-.77-2.74-1.71l3.07.35-.68-.83c-9.85,2.15-18.33-.98-24.46.58.37-.08.28-.22.68-.3-4.07-.47-6.94.59-9.93.87-.34-.42,1.79-.68,3.36-1-7.17-.33-19.21.81-27.11.15-2.79.56,1.05.75-1.85,1.18-2.44-.16-4.17-.61-1.17-.89-6.83-1.04-22.55.68-33.01-.28-5.5.62-2.07.9-10.51,1.31,1.98-.4-2-1.37,3.03-1.42l.59-.44c-8.39-.08-19.58-.24-24.16,1-.26-.91-1.52-.18-4.69-.67-1.29.1.12.14.64.2-3.08.78-4.65-.03-6.86.09l.78-.16-6.03.57c-1-.12-2.51-.29-2.73-.57l.04.64c-3.24,0-1.57-.81-5.61-.65l.85.48c-2.56-.29-6.65.37-7.19-.33-.11-.14.4-.08,1.3-.1-4.01-.97-10.37.32-15.33-.13l1.27,1.03c-4.83.33-2.95-.21-2.77-.57-3.23,0-3.94-.33-8.19-.44-2.1.26-1.1.38-1.77.68l-4.34-.25,2.79-.56c-6.68,1.5-16.76-.17-21.21,1.21-2.54-.29,2.27-.62.75-.79-7.92-.66-17.69.98-24.3.22-10.74-.74-23.1-.02-35.03-.52l.21.28-8.48-.22c-2.29.62-8.06.33-11.64,1.06.29-.22-.46-.56.35-.72-3.61.09-7.53.39-9.67.02l1.21-.24c-7.99-.17-19.09-.19-23.28.34-2.73.06-2.67-.43-3.39-.77-4.62-.03-7.65.25-11.45.7-1-.12-2.04-.23-3.17-.49l-1.76.68c-1.93-.1-.45-.56-1.97-.73-7.21.81-15.62.09-20.67.14l.72.34c-2.1.26-6.16-.21-3.67-.55-10.01-.4-14.85,1.06-28.37.88-1.88-1.23-12.19.36-14.19-1.01-5.71.35-9.39-.2-13.38.6-.12-.14-.61-.2.29-.22-2.26-.51-9.8-.12-15.52.23l-.32-.41c-2.07.9-11.96.64-14.03,1.53-.63-.2,1.09-.38,1.9-.54-3-.85-5.23.41-9.08.22.29-.22-.84-.47-.04-.64-12.79-.97-31.34.67-48.02,0-4.64-.03,1.68.95-4.38.88-1.75-.46,2.97-.92-.88-1.11-2.79.56-3.81.44-7.54.39.68-.3.07-.5,2.69-.7-2.15-.37-9.14.71-13.43-.03.21.28-.57.44-1.37.6-6.32.79-14.48-.79-15.06-.35,0,0-2.21.12-.29.22-2.32-.02-5.65-.15-5.07-.59-1.21.24-2.27.62-4.1.67l.99-.52c-1.05.11-2.27.44-3.3.5l1.64.32c-2.65-.43-7.85.61-7.7-.38l.9-.02-4.96-.45c-1.99.4-3.99.8-7.32.67-1.28-1.03-8.49-.22-12.73-.33l.19-.36c-3.32.5-11.81.28-10.27.45-3.22,0-7.58-.25-5.98-.57-2.62.2-8.17.19-9.55.79l-5.27-.86c-3.17,1.28-10.54-.46-10.86.89-2.94-.21-2.26-.51-4.29-.75-4.09.66-8.32.55-12.57.44l-.11-.14c-4.25-.11-9.24.57-15.2.64l-1.26-1.03c-3.12.15-3.88.94-6.84.73-.69-.16-.04-.21.76-.27-2.91.21-6.84-.06-9.04-.31-4.49.74-7.94.47-11.91,1.27-3.49-.91,5.22-.4,2.22-1.26-6.39-.48-12.91.02-19.94.47-.6-.2.18-.36.47-.58C13.4.19-.86,2.67,1.79,3.65c-1.76.68-3.77,1.08,2.24,1.64,1.99-.4,7.62-.89,8.67-.13l.35-.72c8.04-.33.7,1.47,10.38,1.45l-2.04-.24c1.82-.04,3.29-.5,5.34-.27.62.2-.7.3-1.49.46l8.01-.97c.34.42.04.64-1.56.96,7.35-.03-1.48-1.31,7.5-1.03,1.63.31-.58.44-1.76.68,4.16.61,6.96.05,11.26-.34.06.64-2.77.56.77.97-.71-.33-1.16-.89,1.57-.96-1.32.64,2.08.34,4.73.51-.54-.22-.33-.52.71-.64,1.3-.1,2.42.15,4.24.11l-3.26-.63c4.58-.6,7.17.33,10.65.6-.29.12-.89.2-1.58.24,3.67.26,7.44.78,12.07.22l-.4.08c8.73-.63-2.69-1.07,7.47-1.66,3.34.13-1.6,2.09,6.12,1.34-3.66-.55,4.98-1.32,9.38-1.57l-4.55,1.24c1.78.01,4.85-.33,5.82-.21l-.22-.28c-.34-1.05,5.68.15,8.87-.49-3.96,1.44-4.18,1.16-4.91,2.59,3.09-.78,6.67-1.5,12.33-1.35l-4.66,1.1c7.56.24,16.45-1.38,22.65-2.31-1.67.82.88,1.11-1.82,1.81l7.26-.17-2.05.9c2.97-.92,6.23-.29,5.74-1.48-.79.16-.69.3-2.1.26.18-.36,1.44-1.1,5.19-1.04,2.53.29-1.49.46-.78.8,2.41-.48,2.56.29,5.06-.05l-2.24-.51c1.76-.68,4.15-.03,6.62-.37-2.97.29-2,.69-.89,1.11l-.16-.09c1.8-.04,4.2-.52,5.44-.13l-1.54.96,2.67-.7c1.01.12,1.73.46.03.64,8.3.58-.23-2.05,10.63-1.17-.19.36-1.37.6-4.32.39-.48.58.25.91,3.19,1.13.05.04,0,.07.02.11,5.65.02,13,.06,16.72-.57Z"/>
      <path class="cls-1" d="M172.45,6.44c-3.02,0-5.57,0-6.75.12.57.19,6.9.47,6.75-.12Z"/>
      <path class="cls-1" d="M617.53,5.42c-.38.03-.75.06-1.11.1.39-.03.76-.06,1.11-.1Z"/>
      <path class="cls-1" d="M641.51,5.14c-.26-.1-.72-.16-1.26-.21,0,.19.31.33,1.26.21Z"/>
      <path class="cls-1" d="M393.77,5.75s.07,0,.1,0c-.04,0-.07,0-.1,0Z"/>
      <path class="cls-1" d="M530.01,6.01c2.1-.31,2.88-.56,2.99-.81-1.32.08-2.42.29-2.99.81Z"/>
      <path class="cls-1" d="M484.06,5.63c-.29.05-.61.09-.86.14.67-.05.86-.09.86-.14Z"/>
      <path class="cls-1" d="M386.59,6.22c2.02-.31,4.86-.29,7.18-.47-1.98.17-5.8-.14-7.18.47Z"/>
      <polygon class="cls-1" points="670.71 4.09 668.31 4.57 670.83 4.23 670.71 4.09"/>
      <path class="cls-1" d="M648.32,4.41c-1-.12-4.93.19-3.8.44,1.19-.24,2.52-.34,3.8-.44Z"/>
      <polygon class="cls-1" points="562.55 3.96 561.6 4.48 563.58 4.08 562.55 3.96"/>
    </g>
  </g>
</svg>