<svg id="Group_56" data-name="Group 56" xmlns="http://www.w3.org/2000/svg" xmlns:xlink="http://www.w3.org/1999/xlink" width="169.958" height="58.173" viewBox="0 0 169.958 58.173">
  <defs>
    <clipPath id="clip-path">
      <rect id="Rectangle_26" data-name="Rectangle 26" width="169.958" height="58.173" fill="none"/>
    </clipPath>
  </defs>
  <g id="Group_55" data-name="Group 55" transform="translate(0 0)" clip-path="url(#clip-path)">
    <path id="Path_491" data-name="Path 491" d="M166.7,52.14a190.318,190.318,0,0,1-66.764-.161,193.419,193.419,0,0,1-62.01-22.536A186.519,186.519,0,0,1,7.5,7.639a4.526,4.526,0,0,1,0-6.364,4.608,4.608,0,0,1,6.364,0q3,2.64,6.113,5.149.779.626,1.563,1.243.471.371.945.737c-.141-.109-.649-.5.039.027q1.669,1.269,3.362,2.507,6.537,4.757,13.484,8.917,6.851,4.106,14.039,7.611,3.589,1.752,7.253,3.35.915.4,1.835.789c-.165-.069-.776-.322.03.011.308.127.615.255.923.381q1.941.8,3.9,1.55a191.1,191.1,0,0,0,30.663,8.932q3.917.792,7.864,1.42c1.316.209,2.634.4,3.953.586-.893-.128-.189-.025-.009,0,.4.051.793.1,1.189.152q.991.123,1.984.236,8.036.915,16.131,1.132,8.98.239,17.956-.4,4.482-.323,8.943-.87l.991-.125c.2-.026.4-.051.594-.078q-.8.109-.009,0c.66-.094,1.319-.187,1.978-.286q2.371-.357,4.732-.78c2.31-.41,4.962.623,5.536,3.143.5,2.2-.665,5.1-3.143,5.536" transform="translate(0 3.162)" fill="#e3ff40"/>
    <path id="Path_492" data-name="Path 492" d="M16.5,55.987.621,29.208a4.546,4.546,0,0,1,3.886-6.771l45.661-1.519a4.538,4.538,0,0,1,4.5,4.5,4.591,4.591,0,0,1-4.5,4.5L4.507,31.437Q6.45,28.05,8.393,24.665l15.874,26.78A4.5,4.5,0,0,1,16.5,55.987" transform="translate(0 -20.916)" fill="#e3ff40"/>
  </g>
</svg>
