<svg xmlns="http://www.w3.org/2000/svg" xmlns:xlink="http://www.w3.org/1999/xlink" width="209.506" height="137.242" viewBox="0 0 209.506 137.242">
  <defs>
    <clipPath id="clip-path">
      <rect id="Rectangle_25" data-name="Rectangle 25" width="209.506" height="137.242" fill="none"/>
    </clipPath>
  </defs>
  <g id="Group_54" data-name="Group 54" transform="translate(209.506 137.242) rotate(180)">
    <g id="Group_54-2" data-name="Group 54" clip-path="url(#clip-path)">
      <path id="Path_489" data-name="Path 489" d="M197.236,133.969q-1.782-5.424-3.93-10.718-.257-.627-.516-1.252c-.33-.8-.064-.153,0,0l-.228-.534q-.61-1.422-1.247-2.833-1.155-2.558-2.394-5.074a169.453,169.453,0,0,0-11.439-19.741q-1.62-2.409-3.322-4.761-.793-1.1-1.6-2.183-.407-.543-.816-1.082c-.117-.155-.235-.308-.352-.462-.753-.988.321.4-.124-.162-2.354-2.994-4.773-5.93-7.3-8.775A170.766,170.766,0,0,0,147.686,60.4q-2.2-1.891-4.468-3.7-1.056-.848-2.127-1.676c.679.525-.256-.192-.472-.355q-.616-.468-1.238-.929-4.579-3.406-9.387-6.49a163.015,163.015,0,0,0-21.381-11.554q-.781-.351-1.567-.692l-.589-.256c-.1-.042-.917-.393-.448-.193.425.181-.225-.094-.252-.1-.263-.11-.527-.22-.791-.328q-.792-.325-1.588-.643-2.983-1.193-6.011-2.268-5.851-2.08-11.847-3.728-6.2-1.7-12.51-2.939-3.048-.6-6.118-1.082-1.48-.235-2.966-.444c-.119-.017-1.006-.138-.463-.065.494.066-.208-.026-.252-.032-.567-.072-1.133-.144-1.7-.211a170.847,170.847,0,0,0-25.443-1.123q-6.315.193-12.6.861-1.49.159-2.978.344l-.637.081c-.12.015-1.006.134-.464.06.5-.068-.206.03-.25.036-.353.051-.707.1-1.06.153q-3.179.466-6.337,1.059-3.054.573-6.083,1.261a4.5,4.5,0,0,1-2.393-8.679,172.409,172.409,0,0,1,52.067-3.676,174.875,174.875,0,0,1,50.839,11.872A171.886,171.886,0,0,1,149.28,50.093a175.226,175.226,0,0,1,32.543,34.268,172.544,172.544,0,0,1,22.188,41.731q1,2.724,1.9,5.484a4.536,4.536,0,0,1-3.143,5.536,4.6,4.6,0,0,1-5.536-3.143" transform="translate(3.409 0)" fill="#e3ff40"/>
      <path id="Path_490" data-name="Path 490" d="M203.528,7.641,185.2,22.153q-.455-3.534-.911-7.068l22.97,17.095c1.882,1.4,3.032,3.958,1.614,6.157-1.2,1.863-4.137,3.117-6.157,1.614L179.747,22.856a4.669,4.669,0,0,1-2.149-3.287,4.225,4.225,0,0,1,1.238-3.78L197.164,1.277c1.842-1.458,4.59-1.932,6.364,0,1.492,1.625,1.971,4.8,0,6.364" transform="translate(-177.555 0)" fill="#e3ff40"/>
    </g>
  </g>
</svg>
