<svg xmlns="http://www.w3.org/2000/svg" xmlns:xlink="http://www.w3.org/1999/xlink" width="280.817" height="79.279" viewBox="0 0 280.817 79.279">
  <defs>
    <clipPath id="clip-path">
      <rect id="Rectangle_24" data-name="Rectangle 24" width="280.817" height="79.279" fill="none"/>
    </clipPath>
  </defs>
  <g id="Group_53" data-name="Group 53" transform="translate(0 0)">
    <g id="Group_52" data-name="Group 52" transform="translate(0 0)" clip-path="url(#clip-path)">
      <path id="Path_488" data-name="Path 488" d="M61.564,67.315A360.235,360.235,0,0,0,118.7,77.637a333.125,333.125,0,0,0,57.541.736A312.613,312.613,0,0,0,233.3,68.844a213.556,213.556,0,0,0,26.727-8.613c8.72-3.609,16.808-9.1,19.853-18.491a19,19,0,0,0-.828-13.882c-1.758-3.827-5.012-6.815-8.484-9.085a54.792,54.792,0,0,0-11.41-5.279q-6.833-2.478-13.868-4.346c-19.014-5.09-38.744-7.128-58.356-8.127C168.117.063,149.209-.31,130.373.292A328.68,328.68,0,0,0,74.234,6.449a213.579,213.579,0,0,0-26.518,7.229c-4.551,1.574-9.031,3.337-13.458,5.236a106.186,106.186,0,0,0-10.19,4.8,57.647,57.647,0,0,0-13.181,10.3C6.1,39.019,1.948,45.186.563,52.068a27.969,27.969,0,0,0,.1,11.616A4.5,4.5,0,0,0,6.155,66.8a4.57,4.57,0,0,0,3.12-5.5c-.091-.42-.154-.848-.247-1.267-.114-.511.023.242.029.291-.028-.238-.055-.475-.076-.713A21.619,21.619,0,0,1,8.9,57.162q.013-.6.062-1.207c.023-.285.216-1.488.013-.341.139-.78.273-1.556.468-2.325s.424-1.515.687-2.255c.113-.317.236-.629.356-.944.292-.76,0,.009-.06.137.094-.2.184-.409.278-.612a32.806,32.806,0,0,1,2.309-4.1c.431-.654.887-1.29,1.351-1.921s-.484.582.225-.282c.246-.3.491-.6.743-.9.989-1.16,2.036-2.271,3.128-3.335q1.561-1.519,3.238-2.911.4-.332.805-.657c.151-.121.306-.239.457-.362.373-.306-.332.26-.338.259.22.054,1.423-1.056,1.661-1.225a44.375,44.375,0,0,1,5.254-3.267c1.744-.9,3.532-1.733,5.318-2.551q1.407-.643,2.824-1.264c1.307-.572,1.588-.688,2.653-1.125a196.424,196.424,0,0,1,25.184-8.331,245.578,245.578,0,0,1,26.111-5.221c2.443-.357,3.459-.491,5.921-.791q3.449-.418,6.906-.76,6.695-.664,13.411-1.069c17.964-1.1,35.979-.975,53.961-.441,9.411.279,18.82.686,28.207,1.441,4.687.377,9.369.841,14.036,1.421,1.334.166,1.767.221,2.8.365q1.742.243,3.48.509,3.6.549,7.175,1.21a186.039,186.039,0,0,1,27.13,7.045q1.543.535,3.074,1.1.694.256,1.385.523c.185.071.367.143.551.216-.02-.008,1.075.438.568.226-.371-.155.774.343.929.414q.546.249,1.086.511c.9.438,1.778.905,2.637,1.413.737.435,1.444.906,2.146,1.394s.168.115.027,0c.152.12.3.242.449.366q.588.491,1.139,1.024c.317.309.624.626.918.958.209.236.683.891.25.266a26.558,26.558,0,0,1,1.445,2.425c.24.44-.05-.12-.073-.19.083.244.179.483.258.729a13.113,13.113,0,0,1,.361,1.387c.041.2.078.4.109.6-.015-.1-.031-.688-.043-.182-.013.536.054,1.075.034,1.615-.01.283-.154,1.5-.014.627q-.113.706-.285,1.4-.149.6-.339,1.184c-.085.262-.182.519-.273.779-.233.666.269-.564-.025.082a20.451,20.451,0,0,1-1.393,2.565q-.393.618-.83,1.207c.428-.579-.337.386-.485.555a19.7,19.7,0,0,1-4.084,3.564,40.034,40.034,0,0,1-5.513,3.04c-.48.221-.963.438-1.449.644.628-.266-.658.26-.824.325-1.055.417-2.119.811-3.188,1.194q-6.451,2.311-13.019,4.278-13.223,4-26.784,6.729-6.769,1.368-13.594,2.428-1.706.267-3.416.511-.733.106-1.465.207l-.978.135c.473-.064-.139.018-.279.036q-3.426.447-6.86.822a327.988,327.988,0,0,1-55.527,1.241,333.826,333.826,0,0,1-54.135-7.761q-6.635-1.5-13.207-3.249a4.469,4.469,0,1,0-2.376,8.616" transform="translate(0 0)" fill="#e3ff40"/>
    </g>
  </g>
</svg>
